<mxfile host="app.diagrams.net" modified="2023-12-03T13:21:24.164Z" agent="Mozilla/5.0 (Macintosh; Intel Mac OS X 10_15_7) AppleWebKit/537.36 (KHTML, like Gecko) Chrome/119.0.0.0 Safari/537.36" etag="lQr23W1JL8NkjFSav51R" version="22.1.5" type="github" pages="2">
  <diagram name="Page-1" id="UcXnSxAR2s9ScuIIi8TF">
    <mxGraphModel dx="1193" dy="803" grid="1" gridSize="10" guides="1" tooltips="1" connect="1" arrows="1" fold="1" page="1" pageScale="1" pageWidth="827" pageHeight="1169" math="0" shadow="0">
      <root>
        <mxCell id="0" />
        <mxCell id="1" parent="0" />
        <mxCell id="sMvIjPROLd2NujlQrFik-1" value="教案准备 Pool" style="swimlane;childLayout=stackLayout;resizeParent=1;resizeParentMax=0;startSize=20;html=1;container=0;movable=0;resizable=0;rotatable=0;deletable=0;editable=0;locked=1;connectable=0;" vertex="1" parent="1">
          <mxGeometry x="140" y="90" width="360" height="570" as="geometry">
            <mxRectangle x="140" y="90" width="70" height="30" as="alternateBounds" />
          </mxGeometry>
        </mxCell>
        <mxCell id="sMvIjPROLd2NujlQrFik-3" value="老师" style="swimlane;startSize=20;html=1;movable=0;resizable=0;rotatable=0;deletable=0;editable=0;locked=1;connectable=0;" vertex="1" parent="1">
          <mxGeometry x="260" y="110" width="120" height="550" as="geometry">
            <mxRectangle x="260" y="110" width="40" height="550" as="alternateBounds" />
          </mxGeometry>
        </mxCell>
        <mxCell id="sMvIjPROLd2NujlQrFik-7" value="设定课堂目标" style="whiteSpace=wrap;html=1;movable=0;resizable=0;rotatable=0;deletable=0;editable=0;locked=1;connectable=0;" vertex="1" parent="sMvIjPROLd2NujlQrFik-3">
          <mxGeometry x="20" y="80" width="80" height="20" as="geometry" />
        </mxCell>
        <mxCell id="sMvIjPROLd2NujlQrFik-24" style="edgeStyle=orthogonalEdgeStyle;rounded=0;orthogonalLoop=1;jettySize=auto;html=1;entryX=0.5;entryY=0;entryDx=0;entryDy=0;exitX=1;exitY=0.5;exitDx=0;exitDy=0;movable=0;resizable=0;rotatable=0;deletable=0;editable=0;locked=1;connectable=0;" edge="1" parent="sMvIjPROLd2NujlQrFik-3" source="sMvIjPROLd2NujlQrFik-11" target="sMvIjPROLd2NujlQrFik-20">
          <mxGeometry relative="1" as="geometry">
            <Array as="points">
              <mxPoint x="110" y="215" />
              <mxPoint x="110" y="290" />
              <mxPoint x="60" y="290" />
            </Array>
          </mxGeometry>
        </mxCell>
        <mxCell id="sMvIjPROLd2NujlQrFik-27" value="满意" style="edgeLabel;html=1;align=center;verticalAlign=middle;resizable=0;points=[];movable=0;rotatable=0;deletable=0;editable=0;locked=1;connectable=0;" vertex="1" connectable="0" parent="sMvIjPROLd2NujlQrFik-24">
          <mxGeometry x="-0.2791" relative="1" as="geometry">
            <mxPoint as="offset" />
          </mxGeometry>
        </mxCell>
        <mxCell id="sMvIjPROLd2NujlQrFik-11" value="审核材料" style="rhombus;whiteSpace=wrap;html=1;movable=0;resizable=0;rotatable=0;deletable=0;editable=0;locked=1;connectable=0;" vertex="1" parent="sMvIjPROLd2NujlQrFik-3">
          <mxGeometry x="20" y="200" width="80" height="30" as="geometry" />
        </mxCell>
        <mxCell id="sMvIjPROLd2NujlQrFik-20" value="成型教案" style="rounded=0;whiteSpace=wrap;html=1;movable=0;resizable=0;rotatable=0;deletable=0;editable=0;locked=1;connectable=0;" vertex="1" parent="sMvIjPROLd2NujlQrFik-3">
          <mxGeometry x="25" y="320" width="70" height="30" as="geometry" />
        </mxCell>
        <mxCell id="sMvIjPROLd2NujlQrFik-28" value="课堂反思" style="whiteSpace=wrap;html=1;movable=0;resizable=0;rotatable=0;deletable=0;editable=0;locked=1;connectable=0;" vertex="1" parent="sMvIjPROLd2NujlQrFik-3">
          <mxGeometry x="28.75" y="412.75" width="71.25" height="30" as="geometry" />
        </mxCell>
        <mxCell id="sMvIjPROLd2NujlQrFik-35" value="" style="ellipse;html=1;shape=endState;fillColor=#000000;strokeColor=#ff0000;movable=0;resizable=0;rotatable=0;deletable=0;editable=0;locked=1;connectable=0;" vertex="1" parent="sMvIjPROLd2NujlQrFik-3">
          <mxGeometry x="49.38" y="490" width="30" height="30" as="geometry" />
        </mxCell>
        <mxCell id="sMvIjPROLd2NujlQrFik-36" style="edgeStyle=orthogonalEdgeStyle;rounded=0;orthogonalLoop=1;jettySize=auto;html=1;exitX=0.5;exitY=1;exitDx=0;exitDy=0;entryX=0.479;entryY=-0.105;entryDx=0;entryDy=0;entryPerimeter=0;movable=0;resizable=0;rotatable=0;deletable=0;editable=0;locked=1;connectable=0;" edge="1" parent="sMvIjPROLd2NujlQrFik-3" source="sMvIjPROLd2NujlQrFik-28" target="sMvIjPROLd2NujlQrFik-35">
          <mxGeometry relative="1" as="geometry" />
        </mxCell>
        <mxCell id="sMvIjPROLd2NujlQrFik-39" value="" style="ellipse;html=1;shape=startState;fillColor=#000000;strokeColor=#ff0000;movable=0;resizable=0;rotatable=0;deletable=0;editable=0;locked=1;connectable=0;" vertex="1" parent="sMvIjPROLd2NujlQrFik-3">
          <mxGeometry x="45" y="20" width="30" height="30" as="geometry" />
        </mxCell>
        <mxCell id="sMvIjPROLd2NujlQrFik-40" value="" style="edgeStyle=orthogonalEdgeStyle;html=1;verticalAlign=bottom;endArrow=open;endSize=8;strokeColor=#ff0000;rounded=0;movable=0;resizable=0;rotatable=0;deletable=0;editable=0;locked=1;connectable=0;" edge="1" source="sMvIjPROLd2NujlQrFik-39" parent="sMvIjPROLd2NujlQrFik-3">
          <mxGeometry relative="1" as="geometry">
            <mxPoint x="60" y="80" as="targetPoint" />
          </mxGeometry>
        </mxCell>
        <mxCell id="sMvIjPROLd2NujlQrFik-10" value="" style="edgeStyle=orthogonalEdgeStyle;rounded=0;orthogonalLoop=1;jettySize=auto;html=1;movable=0;resizable=0;rotatable=0;deletable=0;editable=0;locked=1;connectable=0;" edge="1" parent="1" source="sMvIjPROLd2NujlQrFik-7" target="sMvIjPROLd2NujlQrFik-9">
          <mxGeometry relative="1" as="geometry" />
        </mxCell>
        <mxCell id="sMvIjPROLd2NujlQrFik-12" value="" style="edgeStyle=orthogonalEdgeStyle;rounded=0;orthogonalLoop=1;jettySize=auto;html=1;movable=0;resizable=0;rotatable=0;deletable=0;editable=0;locked=1;connectable=0;" edge="1" parent="1" source="sMvIjPROLd2NujlQrFik-9" target="sMvIjPROLd2NujlQrFik-11">
          <mxGeometry relative="1" as="geometry" />
        </mxCell>
        <mxCell id="sMvIjPROLd2NujlQrFik-14" value="" style="edgeStyle=orthogonalEdgeStyle;rounded=0;orthogonalLoop=1;jettySize=auto;html=1;movable=0;resizable=0;rotatable=0;deletable=0;editable=0;locked=1;connectable=0;" edge="1" parent="1" source="sMvIjPROLd2NujlQrFik-11" target="sMvIjPROLd2NujlQrFik-13">
          <mxGeometry relative="1" as="geometry" />
        </mxCell>
        <mxCell id="sMvIjPROLd2NujlQrFik-26" value="调整建议" style="edgeLabel;html=1;align=center;verticalAlign=middle;resizable=0;points=[];movable=0;rotatable=0;deletable=0;editable=0;locked=1;connectable=0;" vertex="1" connectable="0" parent="sMvIjPROLd2NujlQrFik-14">
          <mxGeometry x="-0.3963" y="1" relative="1" as="geometry">
            <mxPoint as="offset" />
          </mxGeometry>
        </mxCell>
        <mxCell id="sMvIjPROLd2NujlQrFik-4" value="课堂" style="swimlane;startSize=20;html=1;movable=0;resizable=0;rotatable=0;deletable=0;editable=0;locked=1;connectable=0;" vertex="1" parent="1">
          <mxGeometry x="380" y="110" width="120" height="550" as="geometry">
            <mxRectangle x="380" y="110" width="40" height="550" as="alternateBounds" />
          </mxGeometry>
        </mxCell>
        <mxCell id="sMvIjPROLd2NujlQrFik-22" value="课堂活动" style="ellipse;shape=cloud;whiteSpace=wrap;html=1;movable=0;resizable=0;rotatable=0;deletable=0;editable=0;locked=1;connectable=0;" vertex="1" parent="sMvIjPROLd2NujlQrFik-4">
          <mxGeometry x="15" y="360" width="90" height="50" as="geometry" />
        </mxCell>
        <mxCell id="sMvIjPROLd2NujlQrFik-2" value="AI" style="swimlane;startSize=20;html=1;movable=0;resizable=0;rotatable=0;deletable=0;editable=0;locked=1;connectable=0;" vertex="1" parent="1">
          <mxGeometry x="140" y="110" width="120" height="550" as="geometry">
            <mxRectangle x="140" y="110" width="50" height="30" as="alternateBounds" />
          </mxGeometry>
        </mxCell>
        <mxCell id="sMvIjPROLd2NujlQrFik-9" value="生成材料" style="whiteSpace=wrap;html=1;movable=0;resizable=0;rotatable=0;deletable=0;editable=0;locked=1;connectable=0;" vertex="1" parent="sMvIjPROLd2NujlQrFik-2">
          <mxGeometry x="10" y="140" width="100" height="20" as="geometry" />
        </mxCell>
        <mxCell id="sMvIjPROLd2NujlQrFik-23" style="edgeStyle=orthogonalEdgeStyle;rounded=0;orthogonalLoop=1;jettySize=auto;html=1;exitX=0.96;exitY=0.7;exitDx=0;exitDy=0;exitPerimeter=0;movable=0;resizable=0;rotatable=0;deletable=0;editable=0;locked=1;connectable=0;" edge="1" parent="sMvIjPROLd2NujlQrFik-2" source="sMvIjPROLd2NujlQrFik-13">
          <mxGeometry relative="1" as="geometry">
            <mxPoint x="180" y="230" as="targetPoint" />
          </mxGeometry>
        </mxCell>
        <mxCell id="sMvIjPROLd2NujlQrFik-13" value="调整材料" style="ellipse;shape=cloud;whiteSpace=wrap;html=1;movable=0;resizable=0;rotatable=0;deletable=0;editable=0;locked=1;connectable=0;" vertex="1" parent="sMvIjPROLd2NujlQrFik-2">
          <mxGeometry x="20" y="250" width="80" height="43.75" as="geometry" />
        </mxCell>
        <mxCell id="sMvIjPROLd2NujlQrFik-33" value="" style="edgeStyle=orthogonalEdgeStyle;rounded=0;orthogonalLoop=1;jettySize=auto;html=1;movable=0;resizable=0;rotatable=0;deletable=0;editable=0;locked=1;connectable=0;" edge="1" parent="sMvIjPROLd2NujlQrFik-2" source="sMvIjPROLd2NujlQrFik-31" target="sMvIjPROLd2NujlQrFik-13">
          <mxGeometry relative="1" as="geometry" />
        </mxCell>
        <mxCell id="sMvIjPROLd2NujlQrFik-31" value="经验积累" style="whiteSpace=wrap;html=1;movable=0;resizable=0;rotatable=0;deletable=0;editable=0;locked=1;connectable=0;" vertex="1" parent="sMvIjPROLd2NujlQrFik-2">
          <mxGeometry x="30" y="406.63" width="60" height="42.25" as="geometry" />
        </mxCell>
        <mxCell id="sMvIjPROLd2NujlQrFik-25" style="edgeStyle=orthogonalEdgeStyle;rounded=0;orthogonalLoop=1;jettySize=auto;html=1;entryX=0.5;entryY=0;entryDx=0;entryDy=0;entryPerimeter=0;movable=0;resizable=0;rotatable=0;deletable=0;editable=0;locked=1;connectable=0;" edge="1" parent="1" source="sMvIjPROLd2NujlQrFik-20" target="sMvIjPROLd2NujlQrFik-22">
          <mxGeometry relative="1" as="geometry" />
        </mxCell>
        <mxCell id="sMvIjPROLd2NujlQrFik-29" value="" style="edgeStyle=orthogonalEdgeStyle;rounded=0;orthogonalLoop=1;jettySize=auto;html=1;movable=0;resizable=0;rotatable=0;deletable=0;editable=0;locked=1;connectable=0;" edge="1" parent="1" source="sMvIjPROLd2NujlQrFik-22" target="sMvIjPROLd2NujlQrFik-28">
          <mxGeometry relative="1" as="geometry" />
        </mxCell>
        <mxCell id="sMvIjPROLd2NujlQrFik-32" value="" style="edgeStyle=orthogonalEdgeStyle;rounded=0;orthogonalLoop=1;jettySize=auto;html=1;movable=0;resizable=0;rotatable=0;deletable=0;editable=0;locked=1;connectable=0;" edge="1" parent="1" source="sMvIjPROLd2NujlQrFik-28" target="sMvIjPROLd2NujlQrFik-31">
          <mxGeometry relative="1" as="geometry" />
        </mxCell>
      </root>
    </mxGraphModel>
  </diagram>
  <diagram id="2VkrBTYr5d2ljtGd4zEk" name="Page-2">
    <mxGraphModel dx="1060" dy="713" grid="1" gridSize="10" guides="1" tooltips="1" connect="1" arrows="1" fold="1" page="1" pageScale="1" pageWidth="827" pageHeight="1169" math="0" shadow="0">
      <root>
        <mxCell id="0" />
        <mxCell id="1" parent="0" />
        <mxCell id="cQWmsyXcc-4bcy35C0wN-1" value="作业批改 Pool" style="swimlane;childLayout=stackLayout;resizeParent=1;resizeParentMax=0;startSize=20;html=1;" vertex="1" parent="1">
          <mxGeometry x="230.00000000000045" y="70" width="420" height="600" as="geometry" />
        </mxCell>
        <mxCell id="cQWmsyXcc-4bcy35C0wN-2" value="AI" style="swimlane;startSize=20;html=1;" vertex="1" parent="cQWmsyXcc-4bcy35C0wN-1">
          <mxGeometry y="20" width="120" height="580" as="geometry" />
        </mxCell>
        <mxCell id="yIF_vV4HJE-e8-0Jx1_F-3" value="识别批改" style="ellipse;shape=cloud;whiteSpace=wrap;html=1;" vertex="1" parent="cQWmsyXcc-4bcy35C0wN-2">
          <mxGeometry x="13.999999999999545" y="180" width="90" height="50" as="geometry" />
        </mxCell>
        <mxCell id="yIF_vV4HJE-e8-0Jx1_F-5" value="输出结果" style="strokeWidth=2;html=1;shape=mxgraph.flowchart.multi-document;whiteSpace=wrap;" vertex="1" parent="cQWmsyXcc-4bcy35C0wN-2">
          <mxGeometry x="14.999999999999545" y="270" width="88" height="60" as="geometry" />
        </mxCell>
        <mxCell id="yIF_vV4HJE-e8-0Jx1_F-7" style="edgeStyle=orthogonalEdgeStyle;rounded=0;orthogonalLoop=1;jettySize=auto;html=1;entryX=0.497;entryY=-0.063;entryDx=0;entryDy=0;entryPerimeter=0;" edge="1" parent="cQWmsyXcc-4bcy35C0wN-2" source="yIF_vV4HJE-e8-0Jx1_F-3" target="yIF_vV4HJE-e8-0Jx1_F-5">
          <mxGeometry relative="1" as="geometry" />
        </mxCell>
        <mxCell id="yIF_vV4HJE-e8-0Jx1_F-10" value="意见存库" style="shape=datastore;whiteSpace=wrap;html=1;" vertex="1" parent="cQWmsyXcc-4bcy35C0wN-2">
          <mxGeometry x="28.999999999999545" y="435" width="60" height="60" as="geometry" />
        </mxCell>
        <mxCell id="cQWmsyXcc-4bcy35C0wN-3" value="教师" style="swimlane;startSize=20;html=1;" vertex="1" parent="cQWmsyXcc-4bcy35C0wN-1">
          <mxGeometry x="120" y="20" width="180" height="580" as="geometry" />
        </mxCell>
        <mxCell id="yIF_vV4HJE-e8-0Jx1_F-1" value="拍照上传" style="rounded=1;whiteSpace=wrap;html=1;" vertex="1" parent="cQWmsyXcc-4bcy35C0wN-3">
          <mxGeometry x="40" y="130" width="100" height="30" as="geometry" />
        </mxCell>
        <mxCell id="yIF_vV4HJE-e8-0Jx1_F-14" value="" style="edgeStyle=orthogonalEdgeStyle;rounded=0;orthogonalLoop=1;jettySize=auto;html=1;" edge="1" parent="cQWmsyXcc-4bcy35C0wN-3" source="yIF_vV4HJE-e8-0Jx1_F-8" target="yIF_vV4HJE-e8-0Jx1_F-12">
          <mxGeometry relative="1" as="geometry" />
        </mxCell>
        <mxCell id="yIF_vV4HJE-e8-0Jx1_F-8" value="审核，修改" style="ellipse;shape=cloud;whiteSpace=wrap;html=1;" vertex="1" parent="cQWmsyXcc-4bcy35C0wN-3">
          <mxGeometry x="29.999999999999545" y="340" width="120" height="80" as="geometry" />
        </mxCell>
        <mxCell id="yIF_vV4HJE-e8-0Jx1_F-12" value="打印输出" style="strokeWidth=2;html=1;shape=mxgraph.flowchart.multi-document;whiteSpace=wrap;" vertex="1" parent="cQWmsyXcc-4bcy35C0wN-3">
          <mxGeometry x="45.999999999999545" y="450" width="88" height="60" as="geometry" />
        </mxCell>
        <mxCell id="cQWmsyXcc-4bcy35C0wN-4" value="学生" style="swimlane;startSize=20;html=1;" vertex="1" parent="cQWmsyXcc-4bcy35C0wN-1">
          <mxGeometry x="300" y="20" width="120" height="580" as="geometry" />
        </mxCell>
        <mxCell id="cQWmsyXcc-4bcy35C0wN-5" value="" style="ellipse;html=1;shape=startState;fillColor=#000000;strokeColor=#ff0000;" vertex="1" parent="cQWmsyXcc-4bcy35C0wN-4">
          <mxGeometry x="44.999999999999545" y="20" width="30" height="30" as="geometry" />
        </mxCell>
        <mxCell id="cQWmsyXcc-4bcy35C0wN-6" value="" style="edgeStyle=orthogonalEdgeStyle;html=1;verticalAlign=bottom;endArrow=open;endSize=8;strokeColor=#ff0000;rounded=0;entryX=0.5;entryY=0.084;entryDx=0;entryDy=0;entryPerimeter=0;" edge="1" source="cQWmsyXcc-4bcy35C0wN-5" parent="cQWmsyXcc-4bcy35C0wN-4" target="cQWmsyXcc-4bcy35C0wN-7">
          <mxGeometry relative="1" as="geometry">
            <mxPoint x="59.999999999999545" y="80" as="targetPoint" />
          </mxGeometry>
        </mxCell>
        <mxCell id="cQWmsyXcc-4bcy35C0wN-7" value="提交作业" style="ellipse;shape=cloud;whiteSpace=wrap;html=1;" vertex="1" parent="cQWmsyXcc-4bcy35C0wN-4">
          <mxGeometry x="15" y="70" width="90" height="50" as="geometry" />
        </mxCell>
        <mxCell id="yIF_vV4HJE-e8-0Jx1_F-18" value="" style="edgeStyle=orthogonalEdgeStyle;rounded=0;orthogonalLoop=1;jettySize=auto;html=1;" edge="1" parent="cQWmsyXcc-4bcy35C0wN-4" source="yIF_vV4HJE-e8-0Jx1_F-15" target="yIF_vV4HJE-e8-0Jx1_F-17">
          <mxGeometry relative="1" as="geometry" />
        </mxCell>
        <mxCell id="yIF_vV4HJE-e8-0Jx1_F-15" value="得到反馈" style="ellipse;shape=cloud;whiteSpace=wrap;html=1;" vertex="1" parent="cQWmsyXcc-4bcy35C0wN-4">
          <mxGeometry x="10" y="455" width="100" height="50" as="geometry" />
        </mxCell>
        <mxCell id="yIF_vV4HJE-e8-0Jx1_F-17" value="" style="ellipse;html=1;shape=endState;fillColor=#000000;strokeColor=#ff0000;" vertex="1" parent="cQWmsyXcc-4bcy35C0wN-4">
          <mxGeometry x="44.999999999999545" y="540" width="30" height="30" as="geometry" />
        </mxCell>
        <mxCell id="yIF_vV4HJE-e8-0Jx1_F-2" style="edgeStyle=orthogonalEdgeStyle;rounded=0;orthogonalLoop=1;jettySize=auto;html=1;entryX=0.497;entryY=-0.068;entryDx=0;entryDy=0;entryPerimeter=0;" edge="1" parent="cQWmsyXcc-4bcy35C0wN-1" source="cQWmsyXcc-4bcy35C0wN-7" target="yIF_vV4HJE-e8-0Jx1_F-1">
          <mxGeometry relative="1" as="geometry" />
        </mxCell>
        <mxCell id="yIF_vV4HJE-e8-0Jx1_F-4" style="edgeStyle=orthogonalEdgeStyle;rounded=0;orthogonalLoop=1;jettySize=auto;html=1;" edge="1" parent="cQWmsyXcc-4bcy35C0wN-1" source="yIF_vV4HJE-e8-0Jx1_F-1" target="yIF_vV4HJE-e8-0Jx1_F-3">
          <mxGeometry relative="1" as="geometry" />
        </mxCell>
        <mxCell id="yIF_vV4HJE-e8-0Jx1_F-9" style="edgeStyle=orthogonalEdgeStyle;rounded=0;orthogonalLoop=1;jettySize=auto;html=1;" edge="1" parent="cQWmsyXcc-4bcy35C0wN-1" source="yIF_vV4HJE-e8-0Jx1_F-5" target="yIF_vV4HJE-e8-0Jx1_F-8">
          <mxGeometry relative="1" as="geometry" />
        </mxCell>
        <mxCell id="yIF_vV4HJE-e8-0Jx1_F-11" style="edgeStyle=orthogonalEdgeStyle;rounded=0;orthogonalLoop=1;jettySize=auto;html=1;entryX=0.5;entryY=0;entryDx=0;entryDy=0;" edge="1" parent="cQWmsyXcc-4bcy35C0wN-1" source="yIF_vV4HJE-e8-0Jx1_F-8" target="yIF_vV4HJE-e8-0Jx1_F-10">
          <mxGeometry relative="1" as="geometry" />
        </mxCell>
        <mxCell id="yIF_vV4HJE-e8-0Jx1_F-19" value="" style="edgeStyle=orthogonalEdgeStyle;rounded=0;orthogonalLoop=1;jettySize=auto;html=1;" edge="1" parent="cQWmsyXcc-4bcy35C0wN-1" source="yIF_vV4HJE-e8-0Jx1_F-12" target="yIF_vV4HJE-e8-0Jx1_F-15">
          <mxGeometry relative="1" as="geometry" />
        </mxCell>
      </root>
    </mxGraphModel>
  </diagram>
</mxfile>
